#N canvas -1927 0 1048 1028 12;
#X obj 1395 166 i;
#X obj 1439 165 + 1;
#X floatatom 1395 202 5 0 0 0 - - - 0;
#X obj 11 81 soundfiler;
#X floatatom 133 115 10 0 0 0 - - - 0;
#X obj 11 31 openpanel;
#X obj 11 5 bng 19 250 50 0 empty empty empty 0 -10 0 12 #fcfcfc #000000 #000000;
#X obj 1133 507 *~;
#X obj 1135 572 dac~;
#X floatatom 11 141 5 0 0 0 - - - 0;
#X obj 1186 502 hsl 60 19 0 0.5 0 0 empty empty empty -2 -10 0 12 #fcfcfc #000000 #000000 0 1;
#X msg 11 55 read -resize \$1 a2;
#X obj 1132 446 tabread4~ a2;
#N canvas 0 50 450 250 (subpatch) 0;
#X array a2 199862 float 0;
#X coords 0 1 199861 -1 200 140 1;
#X restore 7 666 graph;
#X obj 1131 419 line~;
#X obj 11 113 expr $f1 / 44100;
#X floatatom 1131 333 5 0 0 0 - - - 0;
#X obj 1131 356 bng 19 250 50 0 empty empty empty 0 -10 0 12 #fcfcfc #000000 #000000;
#X obj 1131 258 % 2;
#X obj 1395 140 metro 200;
#X obj 1183 526 \$1 20;
#X obj 1183 550 line~;
#X msg 1183 473 0;
#X obj 1395 112 tgl 19 0 empty empty empty 0 -10 0 12 #fcfcfc #000000 #000000 0 1;
#X text 1159 257 ritmo 1;
#X obj 1286 504 *~;
#X obj 1288 569 dac~;
#X obj 1339 499 hsl 60 19 0 0.5 0 0 empty empty empty -2 -10 0 12 #fcfcfc #000000 #000000 0 1;
#X obj 1286 417 line~;
#X floatatom 1286 334 5 0 0 0 - - - 0;
#X obj 1286 357 bng 19 250 50 0 empty empty empty 0 -10 0 12 #fcfcfc #000000 #000000;
#X obj 1336 523 \$1 20;
#X obj 1336 547 line~;
#X msg 1336 472 0;
#X obj 1285 443 tabread4~ a3;
#X text 1319 256 ritmo2;
#X obj 13 244 soundfiler;
#X floatatom 135 272 10 0 0 0 - - - 0;
#X obj 13 194 openpanel;
#X obj 13 168 bng 19 250 50 0 empty empty empty 0 -10 0 12 #fcfcfc #000000 #000000;
#X floatatom 13 298 5 0 0 0 - - - 0;
#X obj 13 270 expr $f1 / 44100;
#N canvas 0 50 450 250 (subpatch) 0;
#X array a3 48629 float 0;
#X coords 0 1 48628 -1 200 140 1;
#X restore 235 666 graph;
#X msg 13 220 read -resize \$1 a3;
#X text 1335 166 contdor;
#X obj 1286 255 % 6;
#X obj 1286 284 sel 0 1 3 5;
#X floatatom 1528 56 5 0 0 0 - - - 0;
#X obj 1475 39 *;
#X obj 1475 98 +;
#X floatatom 1475 122 5 0 0 0 - - - 0;
#X msg 1131 394 0 \, 192760 4532;
#X msg 1219 473 0.5;
#X obj 1131 287 sel 0 2;
#X obj 214 82 soundfiler;
#X floatatom 336 116 10 0 0 0 - - - 0;
#X obj 214 32 openpanel;
#X obj 214 6 bng 19 250 50 0 empty empty empty 0 -10 0 12 #fcfcfc #000000 #000000;
#X obj 214 114 expr $f1 / 44100;
#X msg 214 56 read -resize \$1 a4;
#N canvas 0 50 450 250 (subpatch) 0;
#X array a4 43129 float 0;
#X coords 0 1 43128 -1 200 140 1;
#X restore 457 667 graph;
#X floatatom 214 138 5 0 0 0 - - - 0;
#X obj 1424 6 hradio 19 1 0 4 empty empty empty 0 -10 0 12 #fcfcfc #000000 #000000 0;
#X obj 1443 501 *~;
#X obj 1445 566 dac~;
#X obj 1496 496 hsl 60 19 0 0.5 0 0 empty empty empty -2 -10 0 12 #fcfcfc #000000 #000000 0 1;
#X obj 1443 414 line~;
#X floatatom 1443 331 5 0 0 0 - - - 0;
#X obj 1443 354 bng 19 250 50 0 empty empty empty 0 -10 0 12 #fcfcfc #000000 #000000;
#X obj 1493 520 \$1 20;
#X obj 1493 544 line~;
#X msg 1493 469 0;
#X obj 1442 440 tabread4~ a4;
#X obj 1526 243 % 8;
#X msg 1529 469 0.5;
#X obj 1603 499 *~;
#X obj 1605 564 dac~;
#X obj 1656 494 hsl 60 19 0 0.5 0 0 empty empty empty -2 -10 0 12 #fcfcfc #000000 #000000 0 1;
#X obj 1603 412 line~;
#X floatatom 1603 329 5 0 0 0 - - - 0;
#X obj 1603 352 bng 19 250 50 0 empty empty empty 0 -10 0 12 #fcfcfc #000000 #000000;
#X obj 1653 518 \$1 20;
#X obj 1653 542 line~;
#X msg 1653 468 0;
#X msg 1689 468 0.5;
#X obj 215 242 soundfiler;
#X floatatom 337 270 10 0 0 0 - - - 0;
#X obj 215 192 openpanel;
#X obj 215 166 bng 19 250 50 0 empty empty empty 0 -10 0 12 #fcfcfc #000000 #000000;
#X obj 215 268 expr $f1 / 44100;
#X floatatom 215 292 5 0 0 0 - - - 0;
#X msg 215 218 read -resize \$1 a4b;
#N canvas 0 50 450 250 (subpatch) 0;
#X array a4b 130255 float 0;
#X coords 0 1 130254 -1 200 140 1;
#X restore 457 831 graph;
#X obj 1602 438 tabread4~ a4b;
#X msg 1286 393 0 \, 97258 450;
#X obj 415 81 soundfiler;
#X floatatom 537 115 10 0 0 0 - - - 0;
#X obj 415 31 openpanel;
#X obj 415 5 bng 19 250 50 0 empty empty empty 0 -10 0 12 #fcfcfc #000000 #000000;
#X obj 415 113 expr $f1 / 44100;
#X floatatom 415 137 5 0 0 0 - - - 0;
#X msg 415 55 read -resize \$1 voice;
#N canvas 0 50 450 250 (subpatch) 0;
#X array voice 169344 float 0;
#X coords 0 1 169343 -1 200 140 1;
#X restore 682 667 graph;
#X obj 1018 169 *~;
#X obj 1020 234 dac~;
#X obj 1071 164 hsl 60 19 0 1 0 0 empty empty empty -2 -10 0 12 #fcfcfc #000000 #000000 0 1;
#X obj 1020 91 line~;
#X obj 1020 29 bng 19 250 50 0 empty empty empty 0 -10 0 12 #fcfcfc #000000 #000000;
#X obj 1068 188 \$1 20;
#X obj 1068 212 line~;
#X msg 1068 137 0;
#X msg 1020 65 0 \, 116219 2881;
#X obj 614 84 soundfiler;
#X floatatom 736 118 10 0 0 0 - - - 0;
#X obj 614 34 openpanel;
#X obj 614 8 bng 19 250 50 0 empty empty empty 0 -10 0 12 #fcfcfc #000000 #000000;
#X obj 614 116 expr $f1 / 44100;
#X floatatom 614 140 5 0 0 0 - - - 0;
#X msg 614 58 read -resize \$1 a5;
#N canvas 0 50 450 250 (subpatch) 0;
#X array a5 278080 float 0;
#X coords 0 1 278079 -1 200 140 1;
#X restore 9 825 graph;
#X obj 1754 498 *~;
#X obj 1756 563 dac~;
#X obj 1807 493 hsl 60 19 0 0.5 0 0 empty empty empty -2 -10 0 12 #fcfcfc #000000 #000000 0 1;
#X obj 1754 411 line~;
#X floatatom 1754 328 5 0 0 0 - - - 0;
#X obj 1754 351 bng 19 250 50 0 empty empty empty 0 -10 0 12 #fcfcfc #000000 #000000;
#X obj 1804 517 \$1 20;
#X obj 1804 541 line~;
#X msg 1804 466 0;
#X obj 1753 437 tabread4~ a5;
#X obj 1754 249 % 12;
#X msg 1497 67 200;
#X msg 1520 8 25;
#X msg 1838 466 0.5;
#X msg 1871 467 1;
#X obj 1444 287 sel 0 1 3 7;
#X obj 1754 276 sel 1 3 7 8 9 10 11;
#X msg 1754 383 0 \, 278080 6305;
#X text 629 189 Lectores de archivos de audio a usar;
#X text 271 888 Gráficos de audio;
#X obj 1142 681 pack f;
#X obj 1142 708 oscformat /ritmo2;
#X msg 896 934 disconnect;
#X obj 1253 936 netsend -u -b;
#X floatatom 1253 966 5 0 0 0 - - - 0;
#X msg 895 905 connect localhost 11111;
#X text 1444 244 ritmo3 Y 4;
#X obj 1274 698 vu 19 120 empty empty -1 -10 0 12 #404040 #000000 1 0;
#X obj 1273 657 - 100;
#X floatatom 1273 625 5 0 0 0 - - - 0;
#X obj 945 685 pack f;
#X obj 1077 702 vu 19 120 empty empty -1 -10 0 12 #404040 #000000 1 0;
#X obj 1076 661 - 100;
#X floatatom 1076 629 5 0 0 0 - - - 0;
#X obj 1076 601 env~ 16384 8192;
#X obj 1273 597 env~ 16384 4192;
#X obj 1370 694 pack f;
#X obj 1502 711 vu 19 120 empty empty -1 -10 0 12 #404040 #000000 1 0;
#X obj 1501 670 - 100;
#X floatatom 1501 638 5 0 0 0 - - - 0;
#X obj 1370 721 oscformat /ritmo3;
#X obj 1574 697 pack f;
#X obj 1706 714 vu 19 120 empty empty -1 -10 0 12 #404040 #000000 1 0;
#X obj 1705 673 - 100;
#X floatatom 1705 641 5 0 0 0 - - - 0;
#X obj 1705 613 env~ 16384 8192;
#X text 1788 245 ritmo4 (desactivado);
#X obj 1501 610 env~ 16384 4192;
#X msg 1443 387 0 \, 56400 3500;
#X msg 1603 386 0 \, 110255 2953;
#X obj 1574 724 oscformat /ritmo3b;
#X obj 945 712 oscformat /ritmo1;
#X text 459 581 Los env se usan para tomar las salidas y volverlas un float (que amuneta y disminuye para enviarlo a processing como valor graudual \, dentro de un rango) en base a las muestras de audio \, para tonos mas graves aumentar el segundo parametro.;
#X obj 1390 47 s;
#X obj 1623 788 r;
#X floatatom 1623 812 5 0 0 0 - - - 0;
#X floatatom 1581 898 5 0 0 0 - - - 0;
#X obj 1413 923 pack f;
#X obj 1413 950 oscformat /puntas;
#X msg 1372 472 0.5;
#X obj 1581 874 * 2;
#X obj 1581 852 -;
#X msg 1560 803 5;
#X text 1379 857 Para las puntas (de 4 a 12) se recibe el ritmo general (el de arriba);
#X msg 1104 137 1;
#X text 968 32 voice;
#X obj 1019 115 tabread4~ voice;
#X obj 835 351 pack f;
#X obj 967 368 vu 19 120 empty empty -1 -10 0 12 #404040 #000000 1 0;
#X obj 966 327 - 100;
#X floatatom 966 295 5 0 0 0 - - - 0;
#X obj 966 267 env~ 16384 8192;
#X obj 835 378 oscformat /voice;
#X connect 0 0 1 0;
#X connect 0 0 2 0;
#X connect 1 0 0 1;
#X connect 2 0 45 0;
#X connect 2 0 18 0;
#X connect 2 0 73 0;
#X connect 3 0 4 0;
#X connect 3 0 15 0;
#X connect 5 0 11 0;
#X connect 6 0 5 0;
#X connect 7 0 8 0;
#X connect 7 0 8 1;
#X connect 7 0 154 0;
#X connect 10 0 20 0;
#X connect 11 0 3 0;
#X connect 12 0 7 0;
#X connect 14 0 12 0;
#X connect 15 0 9 0;
#X connect 16 0 17 0;
#X connect 17 0 51 0;
#X connect 18 0 53 0;
#X connect 19 0 0 0;
#X connect 20 0 21 0;
#X connect 21 0 7 1;
#X connect 22 0 10 0;
#X connect 23 0 19 0;
#X connect 25 0 26 1;
#X connect 25 0 26 0;
#X connect 25 0 155 0;
#X connect 27 0 31 0;
#X connect 28 0 34 0;
#X connect 29 0 30 0;
#X connect 30 0 94 0;
#X connect 31 0 32 0;
#X connect 32 0 25 1;
#X connect 33 0 27 0;
#X connect 34 0 25 0;
#X connect 36 0 37 0;
#X connect 36 0 41 0;
#X connect 38 0 43 0;
#X connect 39 0 38 0;
#X connect 41 0 40 0;
#X connect 43 0 36 0;
#X connect 45 0 46 0;
#X connect 46 0 29 0;
#X connect 46 1 29 0;
#X connect 46 2 29 0;
#X connect 46 3 29 0;
#X connect 48 0 47 0;
#X connect 48 0 49 0;
#X connect 49 0 50 0;
#X connect 50 0 19 1;
#X connect 51 0 14 0;
#X connect 52 0 10 0;
#X connect 53 0 16 0;
#X connect 53 1 16 0;
#X connect 54 0 55 0;
#X connect 54 0 58 0;
#X connect 56 0 59 0;
#X connect 57 0 56 0;
#X connect 58 0 61 0;
#X connect 59 0 54 0;
#X connect 62 0 48 0;
#X connect 62 0 173 0;
#X connect 63 0 64 0;
#X connect 63 0 64 1;
#X connect 63 0 167 0;
#X connect 65 0 69 0;
#X connect 66 0 72 0;
#X connect 67 0 68 0;
#X connect 68 0 168 0;
#X connect 69 0 70 0;
#X connect 70 0 63 1;
#X connect 71 0 65 0;
#X connect 72 0 63 0;
#X connect 73 0 135 0;
#X connect 74 0 65 0;
#X connect 75 0 76 0;
#X connect 75 0 76 1;
#X connect 75 0 165 0;
#X connect 77 0 81 0;
#X connect 78 0 93 0;
#X connect 79 0 80 0;
#X connect 80 0 169 0;
#X connect 81 0 82 0;
#X connect 82 0 75 1;
#X connect 83 0 77 0;
#X connect 84 0 77 0;
#X connect 85 0 86 0;
#X connect 85 0 89 0;
#X connect 87 0 91 0;
#X connect 88 0 87 0;
#X connect 89 0 90 0;
#X connect 91 0 85 0;
#X connect 93 0 75 0;
#X connect 94 0 28 0;
#X connect 95 0 96 0;
#X connect 95 0 99 0;
#X connect 97 0 101 0;
#X connect 98 0 97 0;
#X connect 99 0 100 0;
#X connect 101 0 95 0;
#X connect 103 0 104 1;
#X connect 103 0 104 0;
#X connect 103 0 191 0;
#X connect 105 0 108 0;
#X connect 106 0 186 0;
#X connect 107 0 111 0;
#X connect 108 0 109 0;
#X connect 109 0 103 1;
#X connect 110 0 105 0;
#X connect 111 0 106 0;
#X connect 112 0 113 0;
#X connect 112 0 116 0;
#X connect 114 0 118 0;
#X connect 115 0 114 0;
#X connect 116 0 117 0;
#X connect 118 0 112 0;
#X connect 120 0 121 1;
#X connect 120 0 121 0;
#X connect 122 0 126 0;
#X connect 123 0 129 0;
#X connect 124 0 125 0;
#X connect 125 0 137 0;
#X connect 126 0 127 0;
#X connect 127 0 120 1;
#X connect 128 0 122 0;
#X connect 129 0 120 0;
#X connect 130 0 136 0;
#X connect 131 0 49 1;
#X connect 132 0 48 1;
#X connect 133 0 122 0;
#X connect 134 0 122 0;
#X connect 135 0 67 0;
#X connect 135 0 79 0;
#X connect 135 1 67 0;
#X connect 135 2 67 0;
#X connect 135 3 67 0;
#X connect 135 4 79 0;
#X connect 136 0 124 0;
#X connect 136 1 124 0;
#X connect 136 2 124 0;
#X connect 136 3 124 0;
#X connect 136 4 124 0;
#X connect 136 5 124 0;
#X connect 136 6 124 0;
#X connect 137 0 123 0;
#X connect 140 0 141 0;
#X connect 141 0 143 0;
#X connect 142 0 143 0;
#X connect 143 0 144 0;
#X connect 145 0 143 0;
#X connect 148 0 147 0;
#X connect 149 0 148 0;
#X connect 149 0 140 0;
#X connect 150 0 171 0;
#X connect 152 0 151 0;
#X connect 153 0 152 0;
#X connect 153 0 150 0;
#X connect 154 0 153 0;
#X connect 155 0 149 0;
#X connect 156 0 160 0;
#X connect 158 0 157 0;
#X connect 159 0 158 0;
#X connect 159 0 156 0;
#X connect 160 0 143 0;
#X connect 161 0 170 0;
#X connect 163 0 162 0;
#X connect 164 0 163 0;
#X connect 164 0 161 0;
#X connect 165 0 164 0;
#X connect 167 0 159 0;
#X connect 168 0 66 0;
#X connect 169 0 78 0;
#X connect 170 0 143 0;
#X connect 171 0 143 0;
#X connect 174 0 175 0;
#X connect 175 0 181 1;
#X connect 175 0 182 0;
#X connect 176 0 177 0;
#X connect 177 0 178 0;
#X connect 178 0 143 0;
#X connect 179 0 27 0;
#X connect 180 0 176 0;
#X connect 181 0 180 0;
#X connect 182 0 181 0;
#X connect 184 0 105 0;
#X connect 186 0 103 0;
#X connect 187 0 192 0;
#X connect 189 0 188 0;
#X connect 190 0 189 0;
#X connect 190 0 187 0;
#X connect 191 0 190 0;
#X connect 192 0 143 0;
