#N canvas 726 101 965 721 10;
#X obj 221 615 noteout 1;
#X obj 220 549 makenote 64 250;
#X obj 259 437 bng 15 250 50 0 empty empty empty 17 7 0 10 -262144
-1 -1;
#X obj 300 437 bng 15 250 50 0 empty empty empty 17 7 0 10 -262144
-1 -1;
#X obj 339 438 bng 15 250 50 0 empty empty empty 17 7 0 10 -262144
-1 -1;
#X obj 220 104 tgl 15 0 empty empty empty 17 7 0 10 -262144 -1 -1 0
1;
#X obj 220 213 counter;
#X obj 162 399 spigot;
#X floatatom 220 260 5 0 0 0 - - -;
#X obj 310 164 bng 15 250 50 0 empty empty empty 17 7 0 10 -262144
-1 -1;
#X obj 220 439 bng 15 250 50 0 empty empty empty 17 7 0 10 -262144
-1 -1;
#X obj 220 358 sel 0;
#X obj 259 358 sel 0;
#X obj 300 358 sel 0;
#X obj 339 357 sel 0;
#X obj 211 399 tgl 15 0 empty empty empty 17 7 0 10 -262144 -1 -1 1
1;
#X obj 232 399 spigot;
#X obj 281 399 tgl 15 0 empty empty empty 17 7 0 10 -262144 -1 -1 1
1;
#X obj 300 397 spigot;
#X obj 349 397 tgl 15 0 empty empty empty 17 7 0 10 -262144 -1 -1 1
1;
#X obj 370 396 spigot;
#X obj 419 396 tgl 15 0 empty empty empty 17 7 0 10 -262144 -1 -1 0
1;
#X obj 220 306 % 3;
#X obj 259 305 % 6;
#X msg 300 489 72;
#X msg 220 492 64;
#X msg 259 492 67;
#X msg 339 491 60;
#X obj 300 305 % 9;
#X obj 339 309 % 12;
#X obj 556 610 noteout 1;
#X obj 555 544 makenote 64 250;
#X obj 594 432 bng 15 250 50 0 empty empty empty 17 7 0 10 -262144
-1 -1;
#X obj 635 432 bng 15 250 50 0 empty empty empty 17 7 0 10 -262144
-1 -1;
#X obj 674 433 bng 15 250 50 0 empty empty empty 17 7 0 10 -262144
-1 -1;
#X obj 555 99 tgl 15 0 empty empty empty 17 7 0 10 -262144 -1 -1 0
1;
#X obj 555 208 counter;
#X obj 497 394 spigot;
#X floatatom 555 255 5 0 0 0 - - -;
#X obj 645 159 bng 15 250 50 0 empty empty empty 17 7 0 10 -262144
-1 -1;
#X obj 555 434 bng 15 250 50 0 empty empty empty 17 7 0 10 -262144
-1 -1;
#X obj 555 353 sel 0;
#X obj 594 353 sel 0;
#X obj 635 353 sel 0;
#X obj 674 352 sel 0;
#X obj 546 394 tgl 15 0 empty empty empty 17 7 0 10 -262144 -1 -1 1
1;
#X obj 567 394 spigot;
#X obj 616 394 tgl 15 0 empty empty empty 17 7 0 10 -262144 -1 -1 1
1;
#X obj 635 392 spigot;
#X obj 684 392 tgl 15 0 empty empty empty 17 7 0 10 -262144 -1 -1 0
1;
#X obj 705 391 spigot;
#X obj 754 391 tgl 15 0 empty empty empty 17 7 0 10 -262144 -1 -1 1
1;
#X msg 635 484 72;
#X msg 555 487 64;
#X msg 594 487 67;
#X msg 674 486 60;
#X text 206 74 Replica;
#X text 543 71 pruebas;
#X obj 555 301 % 2;
#X obj 594 300 % 4;
#X obj 555 126 metro 150;
#X obj 635 300 % 8;
#X obj 674 304 % 16;
#X obj 220 131 metro 55;
#X connect 1 0 0 0;
#X connect 1 1 0 1;
#X connect 2 0 26 0;
#X connect 3 0 24 0;
#X connect 4 0 27 0;
#X connect 5 0 63 0;
#X connect 6 0 8 0;
#X connect 7 0 10 0;
#X connect 8 0 22 0;
#X connect 8 0 23 0;
#X connect 8 0 28 0;
#X connect 8 0 29 0;
#X connect 9 0 6 2;
#X connect 10 0 25 0;
#X connect 11 0 7 0;
#X connect 12 0 16 0;
#X connect 13 0 18 0;
#X connect 14 0 20 0;
#X connect 15 0 7 1;
#X connect 16 0 2 0;
#X connect 17 0 16 1;
#X connect 18 0 3 0;
#X connect 19 0 18 1;
#X connect 20 0 4 0;
#X connect 21 0 20 1;
#X connect 22 0 11 0;
#X connect 23 0 12 0;
#X connect 24 0 1 0;
#X connect 25 0 1 0;
#X connect 26 0 1 0;
#X connect 27 0 1 0;
#X connect 28 0 13 0;
#X connect 29 0 14 0;
#X connect 31 0 30 0;
#X connect 31 1 30 1;
#X connect 32 0 54 0;
#X connect 33 0 52 0;
#X connect 34 0 55 0;
#X connect 35 0 60 0;
#X connect 36 0 38 0;
#X connect 37 0 40 0;
#X connect 38 0 58 0;
#X connect 38 0 59 0;
#X connect 38 0 61 0;
#X connect 38 0 62 0;
#X connect 39 0 36 2;
#X connect 40 0 53 0;
#X connect 41 0 37 0;
#X connect 42 0 46 0;
#X connect 43 0 48 0;
#X connect 44 0 50 0;
#X connect 45 0 37 1;
#X connect 46 0 32 0;
#X connect 47 0 46 1;
#X connect 48 0 33 0;
#X connect 49 0 48 1;
#X connect 50 0 34 0;
#X connect 51 0 50 1;
#X connect 52 0 31 0;
#X connect 53 0 31 0;
#X connect 54 0 31 0;
#X connect 55 0 31 0;
#X connect 58 0 41 0;
#X connect 59 0 42 0;
#X connect 60 0 36 0;
#X connect 61 0 43 0;
#X connect 62 0 44 0;
#X connect 63 0 6 0;
