#N canvas -16 13 1920 1037 12;
#X obj 1032 292 *~;
#X obj 1034 357 dac~;
#X obj 1085 287 hsl 60 19 0 1 0 0 empty empty empty -2 -10 0 12 #fcfcfc #000000 #000000 0 1;
#X obj 1034 214 line~;
#X obj 1005 99 bng 19 250 50 0 empty empty empty 0 -10 0 12 #fcfcfc #000000 #000000;
#X obj 1082 311 \$1 20;
#X obj 1082 335 line~;
#X msg 1082 260 0;
#X obj 981 491 vu 19 120 empty empty -1 -10 0 12 #404040 #000000 1 0;
#X obj 980 450 - 100;
#X floatatom 980 418 5 0 0 0 - - - 0;
#X obj 60 107 soundfiler;
#X floatatom 182 141 20 0 0 0 - - - 0;
#X obj 60 57 openpanel;
#X obj 60 31 bng 19 250 50 0 empty empty empty 0 -10 0 12 #fcfcfc #000000 #000000;
#X obj 60 139 expr $f1 / 44100;
#X floatatom 60 163 10 0 0 0 - - - 0;
#N canvas 0 50 450 250 (subpatch) 0;
#X array base 1.00673e+07 float 0;
#X coords 0 1 1.00673e+07 -1 200 140 1;
#X restore 71 630 graph;
#X msg 1032 187 0 \, 1.00673e+07 228284;
#X msg 1118 261 0.5;
#X obj 353 95 soundfiler;
#X floatatom 475 129 20 0 0 0 - - - 0;
#X obj 353 45 openpanel;
#X obj 353 19 bng 19 250 50 0 empty empty empty 0 -10 0 12 #fcfcfc #000000 #000000;
#X obj 353 127 expr $f1 / 44100;
#X floatatom 353 151 10 0 0 0 - - - 0;
#N canvas 0 50 450 250 (subpatch) 0;
#X array drums 1.00673e+07 float 0;
#X coords 0 1 1.00673e+07 -1 200 140 1;
#X restore 338 631 graph;
#X obj 1289 285 *~;
#X obj 1291 350 dac~;
#X obj 1342 280 hsl 60 19 0 1 0 0 empty empty empty -2 -10 0 12 #fcfcfc #000000 #000000 0 1;
#X obj 1291 207 line~;
#X obj 1291 145 bng 19 250 50 0 empty empty empty 0 -10 0 12 #fcfcfc #000000 #000000;
#X obj 1339 304 \$1 20;
#X obj 1339 328 line~;
#X msg 1339 253 0;
#X obj 1238 484 vu 19 120 empty empty -1 -10 0 12 #404040 #000000 1 0;
#X obj 1237 443 - 100;
#X floatatom 1237 411 5 0 0 0 - - - 0;
#X msg 1289 180 0 \, 1.00673e+07 228284;
#X msg 1375 254 0.5;
#X obj 1290 231 tabread4~ drums;
#X msg 353 69 read -resize \$1 drums;
#X obj 1291 39 bng 19 250 50 0 empty empty empty 0 -10 0 12 #fcfcfc #000000 #000000;
#X obj 63 287 soundfiler;
#X floatatom 185 321 20 0 0 0 - - - 0;
#X obj 63 237 openpanel;
#X obj 63 211 bng 19 250 50 0 empty empty empty 0 -10 0 12 #fcfcfc #000000 #000000;
#X obj 63 319 expr $f1 / 44100;
#X floatatom 63 343 10 0 0 0 - - - 0;
#X msg 63 261 read -resize \$1 vocal;
#N canvas 0 50 450 250 (subpatch) 0;
#X array vocal 1.00673e+07 float 0;
#X coords 0 1 1.00673e+07 -1 200 140 1;
#X restore 71 456 graph;
#X msg 60 81 read -resize \$1 base;
#X obj 1033 238 tabread4~ base;
#X obj 1495 281 *~;
#X obj 1497 346 dac~;
#X obj 1548 276 hsl 60 19 0 1 0 0 empty empty empty -2 -10 0 12 #fcfcfc #000000 #000000 0 1;
#X obj 1497 203 line~;
#X obj 1497 141 bng 19 250 50 0 empty empty empty 0 -10 0 12 #fcfcfc #000000 #000000;
#X obj 1545 300 \$1 20;
#X obj 1545 324 line~;
#X msg 1545 249 0;
#X obj 1444 480 vu 19 120 empty empty -1 -10 0 12 #404040 #000000 1 0;
#X obj 1443 439 - 100;
#X floatatom 1443 407 5 0 0 0 - - - 0;
#X msg 1495 176 0 \, 1.00673e+07 228284;
#X msg 1581 250 0.5;
#X obj 1496 227 tabread4~ vocal;
#N canvas 0 50 450 250 (subpatch) 0;
#X array bass 1.00673e+07 float 0;
#X coords 0 1 1.00673e+07 -1 200 140 1;
#X restore 339 456 graph;
#X obj 358 287 soundfiler;
#X floatatom 480 321 20 0 0 0 - - - 0;
#X obj 358 237 openpanel;
#X obj 358 211 bng 19 250 50 0 empty empty empty 0 -10 0 12 #fcfcfc #000000 #000000;
#X obj 358 319 expr $f1 / 44100;
#X floatatom 358 343 10 0 0 0 - - - 0;
#X msg 358 261 read -resize \$1 bass;
#X text 1445 144 vocal;
#X text 1239 148 drums;
#X text 982 155 base;
#X obj 856 214 line~;
#X msg 856 188 0 \, 1.00673e+07 228284;
#X obj 855 238 tabread4~ bass;
#X obj 980 390 env~ 16384 4096;
#X obj 1237 383 env~ 16384 4096;
#X obj 1443 379 env~ 16384 4096;
#X connect 0 0 1 1;
#X connect 0 0 1 0;
#X connect 0 0 81 0;
#X connect 2 0 5 0;
#X connect 3 0 52 0;
#X connect 4 0 18 0;
#X connect 4 0 79 0;
#X connect 5 0 6 0;
#X connect 6 0 0 1;
#X connect 7 0 2 0;
#X connect 9 0 8 0;
#X connect 10 0 9 0;
#X connect 11 0 12 0;
#X connect 11 0 15 0;
#X connect 13 0 51 0;
#X connect 14 0 13 0;
#X connect 15 0 16 0;
#X connect 18 0 3 0;
#X connect 19 0 2 0;
#X connect 20 0 21 0;
#X connect 20 0 24 0;
#X connect 22 0 41 0;
#X connect 23 0 22 0;
#X connect 24 0 25 0;
#X connect 27 0 28 1;
#X connect 27 0 28 0;
#X connect 27 0 82 0;
#X connect 29 0 32 0;
#X connect 30 0 40 0;
#X connect 31 0 38 0;
#X connect 32 0 33 0;
#X connect 33 0 27 1;
#X connect 34 0 29 0;
#X connect 36 0 35 0;
#X connect 37 0 36 0;
#X connect 38 0 30 0;
#X connect 39 0 29 0;
#X connect 40 0 27 0;
#X connect 41 0 20 0;
#X connect 42 0 4 0;
#X connect 42 0 31 0;
#X connect 42 0 57 0;
#X connect 43 0 44 0;
#X connect 43 0 47 0;
#X connect 45 0 49 0;
#X connect 46 0 45 0;
#X connect 47 0 48 0;
#X connect 49 0 43 0;
#X connect 51 0 11 0;
#X connect 52 0 0 0;
#X connect 53 0 54 1;
#X connect 53 0 54 0;
#X connect 53 0 83 0;
#X connect 55 0 58 0;
#X connect 56 0 66 0;
#X connect 57 0 64 0;
#X connect 58 0 59 0;
#X connect 59 0 53 1;
#X connect 60 0 55 0;
#X connect 62 0 61 0;
#X connect 63 0 62 0;
#X connect 64 0 56 0;
#X connect 65 0 55 0;
#X connect 66 0 53 0;
#X connect 68 0 69 0;
#X connect 68 0 72 0;
#X connect 70 0 74 0;
#X connect 71 0 70 0;
#X connect 72 0 73 0;
#X connect 74 0 68 0;
#X connect 78 0 80 0;
#X connect 79 0 78 0;
#X connect 80 0 0 0;
#X connect 81 0 10 0;
#X connect 82 0 37 0;
#X connect 83 0 63 0;
